<svg width="60" height="60" viewBox="0 0 60 60" fill="none" xmlns="http://www.w3.org/2000/svg">
<path d="M6 15H22V20C22 20.5523 21.5523 21 21 21H7C6.44771 21 6 20.5523 6 20V15Z" fill="#61BB46" stroke="#424242" stroke-width="2"/>
<path d="M38 15H54V20C54 20.5523 53.5523 21 53 21H39C38.4477 21 38 20.5523 38 20V15Z" fill="#61BB46" stroke="#424242" stroke-width="2"/>
<path d="M38 31H44V34.9C44 35.5075 44.4925 36 45.1 36H47.9C48.5075 36 49 35.5075 49 34.9V31H54V53C54 54.6569 52.6569 56 51 56H37V51C37 47.134 33.866 44 30 44C26.134 44 23 47.134 23 51V56H9C7.34315 56 6 54.6569 6 53V31H11V34.9C11 35.5075 11.4925 36 12.1 36H14.9C15.5075 36 16 35.5075 16 34.9V31H22V34.9C22 35.5075 22.4925 36 23.1 36H25.9C26.5075 36 27 35.5075 27 34.9V31H33V34.9C33 35.5075 33.4925 36 34.1 36H36.9C37.5075 36 38 35.5075 38 34.9V31Z" stroke="#424242" stroke-width="2"/>
<rect x="7" y="20" width="2" height="8" fill="#424242"/>
<rect x="39" y="20" width="2" height="8" fill="#424242"/>
<rect x="19" y="20" width="2" height="8" fill="#424242"/>
<rect x="51" y="20" width="2" height="8" fill="#424242"/>
<path d="M14 5.66667L21 15H7L14 5.66667Z" stroke="#424242" stroke-width="2"/>
<path d="M46 5.66667L53 15H39L46 5.66667Z" stroke="#424242" stroke-width="2"/>
<path d="M22 11L30 4L38 11" stroke="#424242" stroke-width="2" stroke-linecap="round" stroke-linejoin="round"/>
<rect x="10" y="42" width="2" height="4" rx="1" fill="#424242"/>
<rect x="42" y="42" width="2" height="4" rx="1" fill="#424242"/>
<rect x="16" y="42" width="2" height="4" rx="1" fill="#424242"/>
<rect x="27" y="21" width="2" height="4" rx="1" fill="#424242"/>
<rect x="27" y="13" width="2" height="4" rx="1" fill="#424242"/>
<rect x="32" y="21" width="2" height="4" rx="1" fill="#424242"/>
<rect x="32" y="13" width="2" height="4" rx="1" fill="#424242"/>
<rect x="48" y="42" width="2" height="4" rx="1" fill="#424242"/>
</svg>
