<svg width="60" height="60" viewBox="0 0 60 60" fill="none" xmlns="http://www.w3.org/2000/svg">
<path d="M3.1 32C3.1 28.2266 6.28384 25.1 10.2963 25.1H49.7037C53.7162 25.1 56.9 28.2266 56.9 32V51C56.9 52.0493 56.0493 52.9 55 52.9H50.5926C49.5433 52.9 48.6926 52.0493 48.6926 51V50C48.6926 48.8402 47.7524 47.9 46.5926 47.9H13.4074C12.2476 47.9 11.3074 48.8402 11.3074 50V51C11.3074 52.0493 10.4567 52.9 9.40741 52.9H5C3.95066 52.9 3.1 52.0493 3.1 51V32Z" stroke="#424242" stroke-width="2.2"/>
<path d="M9 32H14C16.2091 32 18 33.7909 18 36V37H12C10.3431 37 9 35.6569 9 34V32Z" fill="#61BB46" stroke="#424242" stroke-width="2" stroke-linejoin="round"/>
<path d="M42 37H47C49.2091 37 51 35.2091 51 33V32H45C43.3431 32 42 33.3431 42 35V37Z" fill="#61BB46" stroke="#424242" stroke-width="2" stroke-linejoin="round"/>
<rect x="19" y="41" width="22" height="2" rx="1" fill="#424242"/>
<path d="M12.2869 12.2358C12.663 9.85412 14.7158 8.1 17.127 8.1H42.873C45.2842 8.1 47.337 9.85413 47.7131 12.2358L49.7127 24.9H10.2873L12.2869 12.2358Z" stroke="#424242" stroke-width="2.2"/>
<path d="M2 22.5C2 21.1193 3.11929 20 4.5 20H7.96447C9.20859 20 10.2634 20.9148 10.4393 22.1464C10.6545 23.6525 9.48584 25 7.96447 25H4.5C3.11929 25 2 23.8807 2 22.5Z" stroke="#424242" stroke-width="2"/>
<path d="M49.5607 22.1464C49.7366 20.9148 50.7914 20 52.0355 20H55.5C56.8807 20 58 21.1193 58 22.5C58 23.8807 56.8807 25 55.5 25H52.0355C50.5142 25 49.3455 23.6525 49.5607 22.1464Z" stroke="#424242" stroke-width="2"/>
</svg>
