<svg width="60" height="60" viewBox="0 0 60 60" fill="none" xmlns="http://www.w3.org/2000/svg">
<path d="M50 47V25C50 22.7909 48.2091 21 46 21H41.5818C40.5656 21 39.5874 21.3868 38.846 22.0819L38.2642 22.6273C37.4576 23.3835 37 24.4398 37 25.5454V46.4546C37 47.5602 37.4576 48.6165 38.2642 49.3727L38.846 49.9181C39.5874 50.6132 40.5656 51 41.5818 51H46C48.2091 51 50 49.2091 50 47Z" fill="#61BB46"/>
<path fill-rule="evenodd" clip-rule="evenodd" d="M57.8 14V36C57.8 36.9941 56.9941 37.8 56 37.8H52V40H56C58.2091 40 60 38.2091 60 36V14C60 11.7909 58.2091 10 56 10H51.22C50.4362 10 49.6818 10.2983 49.11 10.8344C47.9233 11.9469 46.0767 11.9469 44.89 10.8344C44.3182 10.2983 43.5638 10 42.78 10H14C11.7909 10 10 11.7909 10 14V19H12.2V14C12.2 13.0059 13.0059 12.2 14 12.2H42.78C43.0049 12.2 43.2213 12.2856 43.3853 12.4394C44.1397 13.1466 45.0498 13.5914 46 13.7738V16C46 16.5523 46.4477 17 47 17C47.5523 17 48 16.5523 48 16V13.7738C48.9502 13.5914 49.8603 13.1466 50.6147 12.4394C50.7787 12.2856 50.9951 12.2 51.22 12.2H56C56.9941 12.2 57.8 13.0059 57.8 14Z" fill="#424242"/>
<path fill-rule="evenodd" clip-rule="evenodd" d="M47.8 47V25C47.8 24.0059 46.9941 23.2 46 23.2H41.22C40.9951 23.2 40.7787 23.2856 40.6147 23.4394C39.8603 24.1466 38.9502 24.5914 38 24.7738V27C38 27.5523 37.5523 28 37 28C36.4477 28 36 27.5523 36 27V24.7738C35.0498 24.5914 34.1397 24.1466 33.3853 23.4394C33.2213 23.2856 33.0049 23.2 32.78 23.2H4C3.00589 23.2 2.2 24.0059 2.2 25V47C2.2 47.9941 3.00589 48.8 4 48.8H32.78C33.0049 48.8 33.2213 48.7144 33.3853 48.5606C34.1463 47.8473 35.0655 47.4009 36.0246 47.2216C36.0085 47.1503 36 47.0761 36 47V45C36 44.4477 36.4477 44 37 44C37.5523 44 38 44.4477 38 45V47C38 47.0761 37.9915 47.1503 37.9754 47.2216C38.9345 47.4009 39.8537 47.8473 40.6147 48.5606C40.7787 48.7144 40.9951 48.8 41.22 48.8H46C46.9941 48.8 47.8 47.9941 47.8 47ZM4 21C1.79086 21 0 22.7909 0 25V47C0 49.2091 1.79086 51 4 51H32.78C33.5638 51 34.3182 50.7017 34.89 50.1656C36.0767 49.0531 37.9233 49.0531 39.11 50.1656C39.6818 50.7017 40.4362 51 41.22 51H46C48.2091 51 50 49.2091 50 47V25C50 22.7909 48.2091 21 46 21H41.22C40.4362 21 39.6818 21.2983 39.11 21.8344C37.9233 22.9469 36.0767 22.9469 34.89 21.8344C34.3182 21.2983 33.5638 21 32.78 21H4ZM37 30C36.4477 30 36 30.4477 36 31V34C36 34.5523 36.4477 35 37 35C37.5523 35 38 34.5523 38 34V31C38 30.4477 37.5523 30 37 30ZM36 38C36 37.4477 36.4477 37 37 37C37.5523 37 38 37.4477 38 38V41C38 41.5523 37.5523 42 37 42C36.4477 42 36 41.5523 36 41V38Z" fill="#424242"/>
<rect x="40" y="31" width="6" height="2" rx="1" fill="#424242"/>
<rect x="40" y="27" width="6" height="2" rx="1" fill="#424242"/>
<rect x="40" y="35" width="6" height="2" rx="1" fill="#424242"/>
<rect x="40" y="39" width="6" height="2" rx="1" fill="#424242"/>
<rect x="40" y="43" width="6" height="2" rx="1" fill="#424242"/>
</svg>
