<svg width="60" height="60" viewBox="0 0 60 60" fill="none" xmlns="http://www.w3.org/2000/svg">
<path d="M30.4385 31.2692C30.4385 35.0133 28.4537 39.1702 25.8057 43.0096C23.1805 46.8158 20.0172 50.1492 17.8941 52.216C16.9756 53.1101 15.5629 53.1101 14.6443 52.216C12.5213 50.1492 9.35793 46.8158 6.73281 43.0096C4.08475 39.1702 2.1 35.0133 2.1 31.2692C2.1 23.4438 8.44378 17.1 16.2692 17.1C24.0947 17.1 30.4385 23.4438 30.4385 31.2692Z" stroke="#424242" stroke-width="2.2" stroke-linejoin="round"/>
<circle cx="16.2692" cy="31.4321" r="6.16217" fill="#61BB46" stroke="#424242" stroke-width="2.2"/>
<path d="M58.3333 16.6667C58.3333 19.2182 56.9706 22.0305 55.1185 24.6384C53.2869 27.2175 51.0808 29.453 49.6118 30.825C49.0695 31.3314 48.2638 31.3314 47.7216 30.825C46.2525 29.453 44.0465 27.2175 42.2148 24.6384C40.3627 22.0305 39 19.2182 39 16.6667C39 11.3279 43.3279 7 48.6667 7C54.0054 7 58.3333 11.3279 58.3333 16.6667Z" stroke="#424242" stroke-width="2" stroke-linejoin="round"/>
<circle cx="48.6667" cy="16.7802" r="4.07315" fill="#61BB46" stroke="#424242" stroke-width="2"/>
<path d="M42.5 32H39.6632C36.9018 32 34.6632 34.2386 34.6632 37C34.6632 39.7614 36.9018 42 39.6632 42H46.5C49.2614 42 51.5 44.2386 51.5 47C51.5 49.7614 49.2614 52 46.5 52H24" stroke="#424242" stroke-width="2.2" stroke-linecap="round" stroke-linejoin="round"/>
</svg>
